/* XPM */
static char *_a462a1ff5e1494a85f8dce76f4adea3ERRh9cojyblH6BVV[] = {
/* columns rows colors chars-per-pixel */
"32 32 99 2 ",
"   c #0B0602",
".  c #0E0A07",
"X  c #110904",
"o  c #1B0E06",
"O  c #150D09",
"+  c #180F08",
"@  c #1E1006",
"#  c #1C120B",
"$  c #241206",
"%  c #2A1507",
"&  c #241409",
"*  c #2B1609",
"=  c #2D190C",
"-  c #331B0A",
";  c #3B1E0B",
":  c #271B11",
">  c #2A1C13",
",  c #3C210F",
"<  c #332114",
"1  c #3D2210",
"2  c #352418",
"3  c #382519",
"4  c #43220C",
"5  c #4B260D",
"6  c #4F280E",
"7  c #542A0E",
"8  c #5D2E0F",
"9  c #422511",
"0  c #492711",
"q  c #4B2913",
"w  c #4A2E1B",
"e  c #532E15",
"r  c #5C2F10",
"t  c #5D3113",
"y  c #5C3319",
"u  c #643211",
"i  c #6F3712",
"p  c #6F3813",
"a  c #62371A",
"s  c #66391B",
"d  c #6B3B1B",
"f  c #703712",
"g  c #723914",
"h  c #793E17",
"j  c #723E1D",
"k  c #7A3F18",
"l  c #77421F",
"z  c #7C411A",
"x  c #7C4420",
"c  c #83451C",
"v  c #87481E",
"b  c #89491F",
"n  c #804721",
"m  c #864A22",
"M  c #8C4C22",
"N  c #894C24",
"B  c #8C4D24",
"V  c #904E23",
"C  c #914F23",
"Z  c #8D5026",
"A  c #8F5026",
"S  c #905021",
"D  c #925023",
"F  c #925025",
"G  c #945024",
"H  c #955327",
"J  c #975326",
"K  c #985426",
"L  c #9A5527",
"P  c #975428",
"I  c #975528",
"U  c #9B5629",
"Y  c #9C5628",
"T  c #9E5729",
"R  c #9B5929",
"E  c #9E5829",
"W  c #9E582A",
"Q  c #A05B2A",
"!  c #A15B2A",
"~  c #A35E2B",
"^  c #A45E2B",
"/  c #A5602B",
"(  c #A7622C",
")  c #A8632C",
"_  c #A9642D",
"`  c #AB662D",
"'  c #AC662D",
"]  c #AC672E",
"[  c #AD682E",
"{  c #AF6B2F",
"}  c #B16C2E",
"|  c #B06D2E",
" . c #B26E2F",
".. c #B36F30",
"X. c #B46F30",
"o. c #B37030",
"O. c #B57030",
"+. c #B57230",
"@. c #B67230",
/* pixels */
"w 3 # 4 g h f g z C c g i p i i p g c , E / +.| E v i c T Y & O ",
"< = & 8 M ( { { X.+.E g f i h c b Y E q l E ` { E L m E T T M = ",
"e P y r D | +.+.X.X.T C D L E Y E E T M + m T T Y T T Y T T z % ",
"B E x 7 M { +.+.+.X.) T E / { ' ' / ~ Y q 5 h g z E T T M h 8 - ",
"m T k 6 k ! { o...X.' ~ | +.+.+.o.+.` T l 4 i i f L b f i u @ m ",
"z T C 6 i M T ` +.' ( +.X...+.| +.X.{ T A - f p f f p i 7 - 4 b ",
"g Y Y - i f L T ^ T T ' | X.+.+.+.+.) E T o 6 i f p i , a e u v ",
"i J Y d 4 i k L T T T J J Y ~ ~ ^ / T T J # & t i 4 - n E e i z ",
"f F T L * u i i z k g f f f g z m C C T j : > = , y R T E q i p ",
"p C T T z - i p f i f f i i f f i i i c N & > e / o.+.` E m e i ",
"i F T Y J 5 ; f i f p p i f i i f i i i z q X n ' +.+.~ T F % i ",
"p g g g f f $ 7 p i p p i i i i i f i f i 0 s T / | ^ E L g 4 8 ",
"u i i i p i i o 5 f p p i i i i i i i i i 4 m T T L T ! z i - 8 ",
"4 i i i i i i 5   - u i i i i i i f i f i 4 M ! T L J b g i 8 $ ",
"9 ; u i i i ; ; # > @ 4 i i i i i i i u 7 % g h f f p i i f f i ",
"& $ o $ - - d Y m < : O $ - - % $ % % % + . i i p f f i i i f 7 ",
"u f i u i z H T Y Y a * M f f p i i i f u @ u i i i f i i i u & ",
"f i i z F E E ] R Y Y = J b f p i i i i f j ; 5 f i i i f i @ x ",
"f f C T Y ~ X.+.` ` ~ d q E L D v z k k v J ! d - u i i u * & J ",
"p p B Y ~ ..+.X.....R R - A E | / T T T T T T T B - 0 ; e n d 0 ",
"i i m T ..o.+.+.X.` T T y A { +.| | ! T C L ! T E 1 9 N T T x 6 ",
"f i c T ] +.X.X.X.( W Y d P { o.+.@.^ M f i m T R 0 F T ` E 0 i ",
"f f k T E ~ ] o...( T Y s v E E ^ ' ^ g f i f z Y 9 Y Y T Y 4 h ",
"f f f J R E E T ` T T W s u h G ! T v i f f i i g e T J v k 6 f ",
"g i f F E T T Y T T Y Y y 7 i i M m i i i i i g ; m g f f u 4 i ",
"i i f f v T E M C T T T s X u g g i i i i i i - r P k i f i $ i ",
"i i i p i k z i i v T T 9 % O 8 f f i i i 7 > $ i i g i g u   r ",
"i f i f i f i p i i g q 6 i u % 4 u i 7 = < 2 - i i i f r O 1 * ",
"- 7 u i f f i i 8 * ; 8 i i i i 6 - 4 * < # q - u g r * * X d 0 ",
"i 4 ; * @ $ - ; 5 u i i i i i i f f i 4 . j E x ; * 5 u g 9 x M ",
"i Y Y a - i i i i i i i i i i i f i i - q Y T Y c g f k P m d T ",
"J { T - i i i i i f i f i i f v f f f $ x T T T ! ( { ..R J ; T "
};
