/* XPM */
static char *_4a94f9091c64349e762c04fa81f5103SpN19vAzAUDDzc3o[] = {
/* columns rows colors chars-per-pixel */
"32 32 208 2 ",
"   c #0C0805",
".  c #190E07",
"X  c #1E1006",
"o  c #1C130C",
"O  c #1C1611",
"+  c #1C1917",
"@  c #1E1D1B",
"#  c #241206",
"$  c #251409",
"%  c #2B1709",
"&  c #28160A",
"*  c #2E190C",
"=  c #341B0B",
"-  c #3B1F0C",
";  c #231C16",
":  c #2A1D15",
">  c #241E1B",
",  c #331E10",
"<  c #3B200F",
"1  c #2E2617",
"2  c #23201E",
"3  c #2A221B",
"4  c #332315",
"5  c #332318",
"6  c #3C2719",
"7  c #3B231C",
"8  c #332C1B",
"9  c #3D341D",
"0  c #1E2325",
"q  c #252522",
"w  c #292522",
"e  c #2C2B26",
"r  c #25282A",
"t  c #2C2B2A",
"y  c #342C23",
"u  c #372B25",
"i  c #3E3423",
"p  c #34312B",
"a  c #3E352C",
"s  c #242D33",
"d  c #283238",
"f  c #343333",
"g  c #3C3630",
"h  c #3A3938",
"j  c #43220C",
"k  c #4D270D",
"l  c #4F280E",
"z  c #542A0E",
"x  c #5C2E0F",
"c  c #452612",
"v  c #4B2A13",
"b  c #45291A",
"n  c #532E15",
"m  c #5A2E11",
"M  c #42351E",
"N  c #47391C",
"B  c #5E3012",
"V  c #55341B",
"C  c #643211",
"Z  c #6E3712",
"A  c #66381A",
"S  c #703712",
"D  c #733A14",
"F  c #793E17",
"G  c #763F1B",
"H  c #4C2522",
"J  c #453722",
"K  c #43392E",
"L  c #563D24",
"P  c #433D36",
"I  c #683D21",
"U  c #3C423E",
"Y  c #57450F",
"T  c #5A471B",
"R  c #73401E",
"E  c #7C411A",
"W  c #6E581E",
"Q  c #574724",
"!  c #4A4338",
"~  c #4A443C",
"^  c #584A33",
"/  c #5D583D",
"(  c #654B24",
")  c #724723",
"_  c #7C4521",
"`  c #675427",
"'  c #7A5A28",
"]  c #62553D",
"[  c #7C6022",
"{  c #7E622A",
"}  c #273A45",
"|  c #3F3F40",
" . c #2A4253",
".. c #2B4759",
"X. c #324A57",
"o. c #3A525B",
"O. c #2E5168",
"+. c #355A74",
"@. c #385D78",
"#. c #3C627C",
"$. c #454444",
"%. c #484A46",
"&. c #4B4A4C",
"*. c #514E4A",
"=. c #5A584B",
"-. c #4D4E50",
";. c #4D5556",
":. c #525355",
">. c #59595A",
",. c #665845",
"<. c #596359",
"1. c #68684B",
"2. c #79654E",
"3. c #746756",
"4. c #496265",
"5. c #5B6D6B",
"6. c #4C6A77",
"7. c #676868",
"8. c #736C66",
"9. c #6C736A",
"0. c #657475",
"q. c #777778",
"w. c #8D2C29",
"e. c #992F2B",
"r. c #B42E2F",
"t. c #84461D",
"y. c #89491F",
"u. c #B16C0A",
"i. c #814721",
"p. c #844A23",
"a. c #8C4C22",
"s. c #904E23",
"d. c #8D5127",
"f. c #945224",
"g. c #995427",
"h. c #965428",
"j. c #9C5729",
"k. c #915929",
"l. c #9E5929",
"z. c #A25D2B",
"x. c #896929",
"c. c #8F702C",
"v. c #9A7C38",
"b. c #AB662D",
"n. c #B16D2F",
"m. c #AC7729",
"M. c #A47C30",
"N. c #B57130",
"B. c #BF4041",
"V. c #AD5D5D",
"C. c #8D774D",
"Z. c #846D52",
"A. c #887858",
"S. c #827E7A",
"D. c #758267",
"F. c #BB9A1D",
"G. c #AB8422",
"H. c #BB8F22",
"J. c #A88536",
"K. c #AC893A",
"L. c #B38B33",
"P. c #B89338",
"I. c #DEB41F",
"U. c #C3992B",
"Y. c #D8B333",
"T. c #EDB62A",
"R. c #F6BB25",
"E. c #F2B929",
"W. c #ECC528",
"Q. c #F7C726",
"!. c #91824F",
"~. c #B7AA59",
"^. c #8A886F",
"/. c #889C7F",
"(. c #A78865",
"). c #B08F6B",
"_. c #B4936D",
"`. c #BA9770",
"'. c #99A071",
"]. c #A7A466",
"[. c #D3B343",
"{. c #C09C73",
"}. c #CBA579",
"|. c #D6AD7E",
" X c #3A6584",
".X c #3B6A87",
"XX c #3D6C8D",
"oX c #386D93",
"OX c #3C7CA9",
"+X c #486F86",
"@X c #4D7081",
"#X c #517686",
"$X c #427899",
"%X c #7B7E83",
"&X c #3D82B2",
"*X c #3D86B9",
"=X c #5C8A9A",
"-X c #6D8F8B",
";X c #5894AB",
":X c #4588B2",
">X c #428FC0",
",X c #8D8885",
"<X c #97928E",
"1X c #9E9893",
"2X c #A7A39D",
"3X c #ACA9A3",
"4X c #B8B2AD",
"5X c #F4F1E8",
/* pixels */
"b 6 o j D D D Z A N 4 ; O + > 1 6 n E < h.z.N.N.l.y.S t.g.j.$ . ",
"4 * $ x a.d.M 9 ( ,.XX&X~.Q.W.=X$X4.T 4 ) l.b.b.l.h.y.j.j.j.a.= ",
"n h.V x _ e y M.L.J.#X:X-XE.R./.>X>XW.[ O E l.j.j.l.j.j.j.j.E % ",
"a.l.i.c w @.X.i J.L.!.$X*X[.R.~.*X*X[.I.+ : E D E l.l.j.s.F x * ",
"a.j.R 3 O.oX.X} ' L.K.#XOX].E.Y.:X*X~.Q.@ @ B S D g.y.D S C X y.",
"F z.V ` K.5.XX Xt L.L.9.XX-XT.T.;X*X'.Q.8 @ 4 Y Z S Z Z z = < y.",
"D d.u J.K.=. X@.} x.L.!.+X#XY.m.o.oX,XQ.9 s 0 B Z Z Z - A n C y.",
"S I  .@X6./ +. X+.Q L.K.oXoX/ b G q D.Q.N }  .1 Z j = t.l.n Z F ",
"S u @.XX X^ o..XXX8 J.L.6.+.t e.B.V.Q W.9  .O.+ < V l.l.l.v Z Z ",
"C i K.L.v.Q D.XXXX .x.[ d 0 7 e.r.z.8 H.8 O.1.e d.N.N.b.l.p.n Z ",
"c ` L.K.J.Y K.6.+.r 9 ( x.k.7 e.r.w.9 W 8 d G.T ' N.N.z.z.f.% Z ",
"4 =.9.<.5.f J.=.y ' M.J.c.x.M H w.7 [ I.F.9 c.` G n.z.l.f.D j m ",
"; #..X#.%.s Q 8 x.Q Q 9 J a K K g a K T G.x.X. .I z.z.j.t.Z = x ",
"+ .X0.C.J.` @ { { ,X<X~ ,.).{.`._._.,.g ! M oX .I g.s.y.S S x # ",
"+ U v.{ { !.Q 9 8 1X,X4X1X! K ] P K S.4X8.N ^.> C S Z S S Z S S ",
"$ O Q A.#XoXoX0 y U q.7.&.q.,X,.,.8.:.p p U.W n S S S Z Z S S z ",
"C Z < X..X+X:Xo.*.,.3X5Xq.8.P {.Z.>.2Xp 2 -X8 Z Z Z Z Z D Z B $ ",
"S Z Z w ;.C.P.P.L `.2.3.8.! A.|.}.P *.Z.r #.: j Z Z Z Z Z Z # _ ",
"S S s.) J L.P.T.J `.).,.,.{.|.|.|.{.2.Z.N x.) G = C Z C - o > + ",
"Z Z a.h.N 1.0.=XX.A.{.|.|.|.`.Z.`.|.|.Z.1.Q p.l.a.% p >.7.5.:.> ",
"S Z a.j.) X.oXOXO.,.(.{.}.|.{.{.}.|.(.f OXs a.h.I P :.%.q t q = ",
"Z S t.j.k.d +.+.} t K P 2.A.Z.g K K >  ...q ) 6 f f f f t w , Z ",
"Z S D j.h.H K K @ P *.w f p w o.o.> V 4 v v 5 t t f t $.t V j D ",
"S S D j.j.g.h.H <XS.-.>.t &.| :.,.r 4 Y % q t f t f h u A G l S ",
"Z S S f.j.l.p.~ 4X1X$.7.%X| @ s d *.> L r @ > 2 2 a v C S C j S ",
"Z Z S S a.f.L ,X3X^.&.%X%X:.H u >.2 w 8.=.+ + o c s.F Z S Z % Z ",
"S Z Z S S F 3 h &.*.f 7.%Xq.| &.%Xh 2 g u ; o % S S D S Z C   x ",
"Z S S Z S C q f f t :.$.-.0.%X%X7.&.; > ; L : * S S S S m X = % ",
"= z B Z S Z 3 t f t :.%Xq.>.:.-.7.$.< % : o c = x S m = %   I k ",
"C j - % X $ % : 3 3 J ~ $.$.| f r 5 Z j   G j.i.- = j C S c i.a.",
"D g.g.A = Z C B m v u.) v : : > 5 7 C = c g.z.g.t.D S F h.p.A j.",
"g.n.z.= C m l k l c T b k 5 > : 5 5 z # t.z.g.z.z.z.b.n.z.h.< j."
};
