/* XPM */
static char *_49f7ee7144a46009bd110d290021f0dvB7VW3e2bPn6KWRx[] = {
/* columns rows colors chars-per-pixel */
"32 32 181 2 ",
"   c #020100",
".  c #0B0501",
"X  c #0E0803",
"o  c #120700",
"O  c #130A02",
"+  c #1B0D02",
"@  c #120B08",
"#  c #1C1006",
"$  c #1C110A",
"%  c #240D00",
"&  c #2B0F00",
"*  c #241203",
"=  c #2A1404",
"-  c #2C1805",
";  c #251409",
":  c #2C1708",
">  c #2E1A0C",
",  c #331300",
"<  c #3D1500",
"1  c #331B02",
"2  c #3B1C00",
"3  c #341B0B",
"4  c #3A1E0C",
"5  c #3F2102",
"6  c #37210E",
"7  c #3C210C",
"8  c #362112",
"9  c #382519",
"0  c #4F1B00",
"q  c #511B00",
"w  c #5A1E00",
"e  c #432303",
"r  c #4B2602",
"t  c #492806",
"y  c #43220C",
"u  c #4B260D",
"i  c #4F280E",
"p  c #522400",
"a  c #532A02",
"s  c #5C2E00",
"d  c #542A0E",
"f  c #5B2D0F",
"g  c #55320D",
"h  c #5D350E",
"j  c #412811",
"k  c #4A2913",
"l  c #472A16",
"z  c #5A2E11",
"x  c #522E16",
"c  c #5D3012",
"v  c #593118",
"b  c #692400",
"n  c #602A00",
"m  c #6A2F00",
"M  c #722700",
"N  c #762800",
"B  c #673502",
"V  c #693500",
"C  c #6F3800",
"Z  c #633608",
"A  c #663A0F",
"S  c #6C3B09",
"D  c #773500",
"F  c #7C3400",
"G  c #743A01",
"H  c #7B3E00",
"J  c #713D09",
"K  c #602F10",
"L  c #643210",
"P  c #6E3712",
"I  c #6F3813",
"U  c #64371A",
"Y  c #65381A",
"T  c #6A3B1C",
"R  c #703712",
"E  c #733A14",
"W  c #793E17",
"Q  c #723C18",
"!  c #7B3F18",
"~  c #7E4913",
"^  c #75401D",
"/  c #7A411B",
"(  c #7E4621",
")  c #8A2F00",
"_  c #813700",
"`  c #833900",
"'  c #8B3C00",
"]  c #933200",
"[  c #9A3400",
"{  c #933C00",
"}  c #9E3900",
"|  c #A23D00",
" . c #854200",
".. c #8B4400",
"X. c #84480B",
"o. c #8C4C0C",
"O. c #954500",
"+. c #9C4400",
"@. c #924901",
"#. c #9A4D00",
"$. c #904C08",
"%. c #9D5207",
"&. c #9B530B",
"*. c #894C10",
"=. c #81451B",
"-. c #87481E",
";. c #89491F",
":. c #945516",
">. c #9A5917",
",. c #A44300",
"<. c #AB4500",
"1. c #A34F00",
"2. c #AC4A00",
"3. c #B44E00",
"4. c #AB5501",
"5. c #A4570A",
"6. c #A3590D",
"7. c #AA5C0E",
"8. c #B65000",
"9. c #BA5400",
"0. c #B55B01",
"q. c #BD5D00",
"w. c #A25D18",
"e. c #BF6102",
"r. c #B4620F",
"t. c #BA640E",
"y. c #AA621A",
"u. c #B7691C",
"i. c #B86A1C",
"p. c #804721",
"a. c #864A22",
"s. c #8C4B21",
"d. c #914E23",
"f. c #8E5526",
"g. c #945225",
"h. c #9A5527",
"j. c #905A26",
"k. c #975528",
"l. c #9C5729",
"z. c #9F5929",
"x. c #A15B2A",
"c. c #9C602A",
"v. c #A7622C",
"b. c #AE6C2E",
"n. c #B16D2F",
"m. c #B47130",
"M. c #C35D00",
"N. c #C56100",
"B. c #CC6600",
"V. c #CE6802",
"C. c #C1670E",
"Z. c #C2680F",
"A. c #CE6D0C",
"S. c #D26C06",
"D. c #D46F0A",
"F. c #D7710B",
"G. c #D9730D",
"H. c #C16810",
"J. c #C96D10",
"K. c #C26F1B",
"L. c #CE7011",
"P. c #C4701D",
"I. c #CC751D",
"U. c #D77411",
"Y. c #DC7610",
"T. c #DE7812",
"R. c #D07418",
"E. c #E17B15",
"W. c #E27C16",
"Q. c #E47E18",
"!. c #D67B20",
"~. c #E6801A",
"^. c #E9831D",
"/. c #EA841E",
"(. c #EB851F",
"). c #EA8622",
"_. c #ED8721",
"`. c #EF8923",
"'. c #EE8924",
"]. c #E38322",
"[. c #F08A24",
/* pixels */
"l 9 $ y Q E Q R =.f.E y - O .   . O + + Y k.m.m.l.-.I =.z.h.; $ ",
"8 > ; z s.v.n.b.j.>   . e Z X.~   O h 7 X   6 j.z.k.s.l.z.h.s.: ",
"x k.v z g.n.b.j   1 6.U.T.T.~.`.P.O e T.U.&.-   4 g.z.z.z.z.! : ",
"s.z.p.z s.c.# + #.D.T.T.T._.`.'./.P.X h ).W.T.&.# X ( k.s.W z 3 ",
";.z.^ i z .   B ..t.T.G.(.'.~.(.T.(.i.  >./.T.T.A.e   k R v + a.",
"! z.d.y . * * + .   = o.'.'._.T.(.[.`.~ O I././.E.Y.V   0 8 7 s.",
"E z.g.  r B.N.B.A.r.g   - I.(.~.`./.W.'.- g /.T./.G.0.  . k L a.",
"P g.k + q.B.9.M.D.T.G.7.O X >.'.`.[.'.[.y.. I./.`.Q.o.O % $ P W ",
"P (   @.B.B.V.B.S.Y.Y.Y.L.- . y.^.(.[.[.).7 A '.[./.S 1 5.  y R ",
"R 4 * M.B.B.B.M.B.Y.G.F.Y.G.5 O ^.[.[.'.`.:.X u.I.R.t t B.r O I ",
"P . m N.N.N.B.M.B.F.Y.T.V.F.r.  *.P.:.g *                     d ",
"u O ,.M.q.M.B.B.B.B.Y.T.G.r.^       X 7 S &.2 t H.t.5 = 4. .* ; ",
"= , 3.M.B.B.B.B.M.M.@.a O   + 1   7.T.S.Y.E.X.O J.G.J * B.B.V O ",
"O r 3.q.B.B.4.V =   . 1 H t.T.r.  &.E.G.G.S.Z.. 6.Y.%.X q.B. .  ",
"X m 2.F r X   + a #.N.B.N.M.S.N.X o.G.G.G.G.D.# G B.B.. #.B.#.  ",
"  X     , H 0.B.B.B.N.B.B.N.M.M.O ..B.B.B.B.B.e a B.B.2 r B.1.  ",
"  < ` 3.9.B.B.B.B.B.B.B.B.B.N.N.O ..B.B.B.B.B.a e B.B.~ o N.1.  ",
"  b <.3.3.M.B.B.B.B.S.B.B.B.B.q.X #.B.B.B.B.B.s 2 B.B.0.X ..@.  ",
"O w | 3.3.8.B.B.B.B.B.B.B.B.B.#.. 0.B.B.B.B.B.B 2 B.B.B.s 2 D . ",
"+ 0 | 3.3.3.9.N.B.B.B.B.B.B.B.s 1 B.B.B.B.B.B.a 2 B.B.B.0.. + X ",
"4 + ] <.3.3.3.9.B.B.B.B.B.B.e.O  .B.B.B.B.B.B.e p B.B.V.M.s   % ",
"P   b [ 3.3.3.3.9.N.B.B.B.B.G O e.B.B.B.B.B.B.* V B.B.N.9.{ . d ",
"P ; % [ | 3.3.3.3.3.M.B.B.q.O G B.B.B.B.B.B.N.X ..B.M.8.3.1 O W ",
"R z . M [ <.3.3.3.3.3.3.q.1 = N.B.B.B.B.B.B.@.X 0.9.3.3.F . 7 R ",
"P R 4 . ) [ <.3.3.3.3.3.2 . +.M.N.N.B.B.B.N.0 2 3.3.8.{ X 3 0 Y ",
"R P P O , ] [ | 3.3.<.2   ' 3.3.8.3.8.3.3.+.. F 3.3.} % O P = P ",
"P R P K . , [ [ } _ O o { 3.3.3.3.3.3.3.3.p + <.2.[ % O K Z . z ",
"R P R P z . % q +   < | 3.3.3.3.3.3.3.8.F . F | ] % X L K $ 8 : ",
"3 z K P R K @   + ) [ [ } | <.<.2.<.<.{ X < ] N @ X d 3 ; @ T i ",
"L y 4 ; % ; 3 +   + b ] [ [ [ [ [ [ N   , N &   @ > 0 K Q y ( s.",
"E h.z.U 3 P P P K :     & q b N N ,     X   ; ( =.E R W h.a.T z.",
"h.n.z.3 P P P P R R L u * X         X   y a.z.x.x.x.b.n.l.h.8 l."
};
