/* XPM */
static char *f581ee08a5dd48208949504c4376350cteU2wPy5KrK5l177[] = {
/* columns rows colors chars-per-pixel */
"32 32 215 2 ",
"   c #030E06",
".  c #0C0805",
"X  c #120906",
"o  c #1A0E06",
"O  c #041006",
"+  c #041309",
"@  c #061C0C",
"#  c #0A1D0B",
"$  c #1D120B",
"%  c #131B0C",
"&  c #280F0B",
"*  c #241206",
"=  c #291407",
"-  c #231309",
";  c #2B1609",
":  c #2E1B0C",
">  c #31140F",
",  c #341B0B",
"<  c #3C1F0B",
"1  c #271B11",
"2  c #2C1B12",
"3  c #391A14",
"4  c #08220C",
"5  c #0A2B0C",
"6  c #14280E",
"7  c #0E3207",
"8  c #0E3B0E",
"9  c #183608",
"0  c #082510",
"q  c #0A2D13",
"w  c #152512",
"e  c #1A2A16",
"r  c #0B3316",
"t  c #0E3D12",
"y  c #0C3B19",
"u  c #133416",
"i  c #163A17",
"p  c #3C210F",
"a  c #282917",
"s  c #392418",
"d  c #273816",
"f  c #383319",
"g  c #242C21",
"h  c #283825",
"j  c #363A25",
"k  c #43220C",
"l  c #4B250D",
"z  c #4C280E",
"x  c #50250B",
"c  c #532A0E",
"v  c #5C2D0F",
"b  c #4B2913",
"n  c #442818",
"m  c #522C14",
"M  c #5C2E10",
"N  c #473315",
"B  c #5B3412",
"V  c #57381A",
"C  c #643211",
"Z  c #6E3712",
"A  c #613A15",
"S  c #6C3A14",
"D  c #623719",
"F  c #67391B",
"G  c #6B3A1B",
"H  c #703712",
"J  c #733A14",
"K  c #793E17",
"L  c #723F1F",
"P  c #7A3F18",
"I  c #58392A",
"U  c #124604",
"Y  c #134A04",
"T  c #144409",
"R  c #164A0B",
"E  c #175609",
"W  c #0F451D",
"Q  c #194817",
"!  c #1D5D19",
"~  c #264119",
"^  c #28441A",
"/  c #324914",
"(  c #375615",
")  c #1A650B",
"_  c #1C6809",
"`  c #1E7508",
"'  c #237C09",
"]  c #2C6114",
"[  c #2F7113",
"{  c #155325",
"}  c #304E24",
"|  c #32472A",
" . c #046C2D",
".. c #0C682C",
"X. c #1E662E",
"o. c #06722F",
"O. c #077831",
"+. c #157A33",
"@. c #2E662E",
"#. c #396828",
"$. c #277739",
"%. c #317330",
"&. c #4A4A0F",
"*. c #46411B",
"=. c #49421D",
"-. c #59451D",
";. c #49561D",
":. c #63451C",
">. c #6A431A",
",. c #77421F",
"<. c #7C411A",
"1. c #474927",
"2. c #564724",
"3. c #45542C",
"4. c #46582A",
"5. c #5F5629",
"6. c #5E403B",
"7. c #555C38",
"8. c #7C4521",
"9. c #744926",
"0. c #655C2A",
"q. c #785529",
"w. c #6C5439",
"e. c #745D38",
"r. c #4A7923",
"t. c #547A26",
"y. c #4D6733",
"u. c #596936",
"i. c #4B7639",
"p. c #626429",
"a. c #7F662E",
"s. c #696A3D",
"d. c #76673B",
"f. c #697C38",
"g. c #797338",
"h. c #77564E",
"j. c #586943",
"k. c #547943",
"l. c #7E6840",
"z. c #797945",
"x. c #82451C",
"c. c #87481E",
"v. c #89491F",
"b. c #804721",
"n. c #854A22",
"m. c #8C4C22",
"M. c #914F23",
"N. c #8D5428",
"B. c #945225",
"V. c #995527",
"C. c #975C27",
"Z. c #955528",
"A. c #9D5729",
"S. c #9E5829",
"D. c #A25D2B",
"F. c #97672E",
"G. c #936C37",
"H. c #A6632D",
"J. c #AB662D",
"K. c #AD692E",
"L. c #B16D2F",
"P. c #B36F30",
"I. c #A37032",
"U. c #B57130",
"Y. c #895F42",
"T. c #8E744F",
"R. c #877848",
"E. c #887F4D",
"W. c #8A7668",
"Q. c #238507",
"!. c #338C12",
"~. c #088236",
"^. c #498723",
"/. c #568A4E",
"(. c #79884B",
"). c #789648",
"_. c #86894C",
"`. c #8D9144",
"'. c #8A8954",
"]. c #928956",
"[. c #9A9757",
"{. c #A3975A",
"}. c #96A455",
"|. c #8F806E",
" X c #919C68",
".X c #A59D61",
"XX c #9BAD6D",
"oX c #ABA365",
"OX c #B2A665",
"+X c #B6A968",
"@X c #AEB269",
"#X c #BBB26C",
"$X c #B6AD71",
"%X c #BDB273",
"&X c #C7B86D",
"*X c #C7BA73",
"=X c #CABC74",
"-X c #C4B878",
";X c #CDC07D",
":X c #7FA582",
">X c #AA968A",
",X c #B79C8B",
"<X c #9BB790",
"1X c #A4A384",
"2X c #ADB797",
"3X c #B5B4A0",
"4X c #C9BE80",
"5X c #CBB8A6",
"6X c #CEBBB1",
"7X c #D5C98F",
"8X c #E7D985",
"9X c #ECE69A",
"0X c #D6CBB9",
"qX c #DECBC0",
"wX c #E9D7CB",
/* pixels */
"N s $ k J K J S 4.%.+.~.~.X.S Z Z J <.k V.D.U.U.S.c.Z x.V.A.- o ",
"3 2 - M m.D.L.a. .O.O.o.o.{ G b.m.A.S.b 8.S.K.J.A.A.m.A.A.A.m., ",
"m Z.V M B.L.U.g... . .o. ...N.A.A.A.S.m.o n.S.A.A.A.A.A.A.A.P ; ",
"m.S.b.c m.L.F.$.O.o. .o. ...F.H.J.J.S.A.b b P J <.A.S.A.m.K v , ",
"v.A.,.z <.D.F.r.+.X.$.k.).`.#.{ g.U.K.V.,.k H Z J V.v.J H C o m.",
"<.A.B.x Z v.C.N.@.XX9X8X8X+X@.y.I.U.K.A.M., H H H H H H c , k v.",
"J A.A., Z J N.y.+.$././.k.k.0.k F.U.H.A.A.o x H H Z C p D m C c.",
"Z V.V.G k Z ,.Z.G.1X2X1X5X9.v x B.D.D.A.B.$ ; M Z k , n.S.m Z P ",
"Z M.A.V.; C H H 8.>XqX,X6Xh.I m <.m.M.A.L 1 1 p p B A.S.S.b S Z ",
"H M.A.A.,., H H H ,XwX<X0Xh.6.c l Z Z x.m.$ a m D.U.U.J.A.n.m Z ",
"Z B.S.A.B.l < H Z T.6X:X3XW.I x m B Z Z <.b X 8.K.U.U.D.D.B.= Z ",
"Z J J J H H * c Z Y.qXwX5Xh.N ( 0.-.Z Z Z l F A.D.P.H.A.V.J k v ",
"C H Z Z Z Z C : 2.e.|.|.4.] [ ) ;.:.>.:.B k N.S.A.A.A.A.P H , v ",
"k Z Z Z Z S :.5.0.t.Q.[ ).@X).( p.[.0.=.*.2.n.S.A.A.B.m.J H v * ",
"k < C S 4.i./ 5.R.r.^.@X-X[.;.-.$X*Xu.w # % D J J H Z Z H Z H H ",
"- - o |  Xu.1._.oX-X=X-X].d.5.z.=X XQ r r @ % B H H H Z Z H H c ",
"C H V (.;Xd s._.-X+X4X$X'.OX5.].=X4X-Xs.y r + a Z Z Z Z Z Z v - ",
"H J 1.oX-X# .X=X&X-X7X=XoXR.1.E.4X=X*X&Xz.u + w C Z Z Z Z Z - 8.",
"H H 4.].3.# 3..XOX-X-XOXOX].d f [.f.[.;X%Xi f f 1.N G Z C > & B.",
"Y.{.z.l.j j.^ ' ^.t.t.^.} E.7.5 U U } 7.@X#X&XoX2.j g a a f f n ",
"J .XOX'.i.u.| ) ' ` ` _ 4.&X1.7 U Y T @.}.g._.`.( g e g j 2.9.l ",
"q.Q.[ j.| r.f.Q r y W ! )..Xd E Y Y R h 3.[.^.Q.) T h 9.D.D.m C ",
"r.) ) ! ~ C.7.r y y W Q _.s.9 8 U R h h j _ Q.!.` Y p.A.A.A.k K ",
"] q q E E n.e q y y y W r i r   O h | I f t r 8 Y Y ( B.n.P x H ",
"d y y t t -.d q y y r r r W 0 + # 9.V N E y q + 4 ( >.Z Z C p Z ",
"B u r r y 9 u r r r q r 0 r @ 5 6 S &.u r 0 +   @ 9.<.H Z Z = Z ",
"Z A d u y E t q r q q r 0 r T ) 8 r y y 0   # e A H J Z H C . v ",
"Z Z H B e ` q q r r q r 0 y E q r r q     w a , H Z H H B o p = ",
", c C Z B 9 a 7.h h y.a % w Y q 0 +   % a $ b > M Z v , = X >.l ",
"C k p ; o s s T.I l.w.n 3 - 9 @ O e N k X L A.x.< , k C H k 8.m.",
"H A.A.D < 3 > w.d.l.2 > > * X X % V H , b V.A.V.x.J H P V.n.G A.",
"V.L.S., Z 6 R d 6 a e X   7       V H = b.A.A.D.D.H.J.L.D.Z.p A."
};
