/* XPM */
static char *_24417d220204dd2a6f414dd9f72db697ntb3h24DOJRNFAo[] = {
/* columns rows colors chars-per-pixel */
"32 32 133 2 ",
"   c None",
".  c #030303",
"X  c #080706",
"o  c #0D0C0B",
"O  c #110F0D",
"+  c #13100F",
"@  c #141211",
"#  c #1A1614",
"$  c #1D1916",
"%  c #1E1A19",
"&  c #221D1A",
"*  c #26211D",
"=  c #29231F",
"-  c #2B2521",
";  c #2E2824",
":  c #2F2B29",
">  c #322A26",
",  c #352E29",
"<  c #382F2A",
"1  c #3B332D",
"2  c #3D3630",
"3  c #3F3832",
"4  c #413731",
"5  c #443A34",
"6  c #4A3E37",
"7  c #4B3F38",
"8  c #4D413A",
"9  c #51453D",
"0  c #524740",
"q  c #564A42",
"w  c #5A4D45",
"e  c #5B4F48",
"r  c #5A5047",
"t  c #5C5047",
"y  c #5D5047",
"u  c #5B5148",
"i  c #5C5048",
"p  c #5E5048",
"a  c #5E5149",
"s  c #5F5149",
"d  c #5E5249",
"f  c #5F5249",
"g  c #5D534A",
"h  c #5F524A",
"j  c #5F534A",
"k  c #5E5149",
"l  c #60534A",
"z  c #60534B",
"x  c #61534B",
"c  c #61544B",
"v  c #60544C",
"b  c #62544C",
"n  c #62554C",
"m  c #63554D",
"M  c #62574E",
"N  c #64574D",
"B  c #64574E",
"V  c #65574E",
"C  c #62554D",
"Z  c #65584F",
"A  c #66584F",
"S  c #66594F",
"D  c #675A4F",
"F  c #65584F",
"G  c #665850",
"H  c #665950",
"J  c #675950",
"K  c #675C51",
"L  c #675A51",
"P  c #685A51",
"I  c #695A51",
"U  c #695B52",
"Y  c #6A5B53",
"T  c #695D53",
"R  c #6A5C53",
"E  c #6B5C53",
"W  c #6A5C54",
"Q  c #6B5D54",
"!  c #6C5D54",
"~  c #6C5E54",
"^  c #6C5E55",
"/  c #6D5E55",
"(  c #6D5F55",
")  c #6D5F56",
"_  c #6E5F56",
"`  c #6E5F57",
"'  c #6C5D54",
"]  c #6F6156",
"[  c #6E6057",
"{  c #6F6057",
"}  c #6E6157",
"|  c #6F6157",
" . c #6F6057",
".. c #706257",
"X. c #706158",
"o. c #706358",
"O. c #716259",
"+. c #716359",
"@. c #726359",
"#. c #72635A",
"$. c #716459",
"%. c #73645A",
"&. c #72655A",
"*. c #73655B",
"=. c #75675B",
"-. c #75675C",
";. c #726359",
":. c #76685D",
">. c #77685D",
",. c #77695E",
"<. c #76685D",
"1. c #786A5E",
"2. c #786A5F",
"3. c #786B5F",
"4. c #796B5F",
"5. c #796A5F",
"6. c #796C60",
"7. c #7A6C60",
"8. c #7B6D60",
"9. c #7B6D61",
"0. c #7B6E61",
"q. c #7C6E62",
"w. c #7C6F62",
"e. c #7D6F63",
"r. c #7B6D61",
"t. c #7E7063",
"y. c #7E7064",
"u. c #7F7164",
"i. c #7E7064",
"p. c #807165",
"a. c #807265",
"s. c #817366",
"d. c #807265",
/* pixels */
"    X .     . . O # * ; = & * $ + $ % = 1 8 3 , 2 - o o         ",
". @ : - @ - w [ 6.p.p.p.y.y.t.t.3.r ; ; Z e u 8 - - 0 q - o     ",
"% > : , K y.y.y.p.q.q.7.&.| | =.6.y.t.w - % & 8 K 6.6.7.p.u %   ",
"@ * q y.6.&.u 8 x { { V w 9 6 6 8 q o.y.6.T 2 8 g J J M ^ V 5 # ",
"&.p.-...h 8 6 7 I { { { { { E e 8 6 6 D y.D b 5 = 6 6 6 7 6 =   ",
"1.-.{ E 7 8 6 h { { { { ..1.=.X.~ 8 6 6 9 8 9 { 7 = 6 6 6 - X   ",
"X.^ ..{ b 8 6 E { { { { ..p.p.p.y.&.h 8 6 6 9 ^ | 1 * 6 1 * q   ",
"{ X.X.^ ..^ J | { { { { { X.8.p.u.,.| ~ c I ^ { ^ 9 & 5 & 6 b $ ",
"{ ^ { { { { { { { { { x 9 b { @.8.=.{ { X.^ ^ I 9 1 = $ 5 6 8 & ",
"^ w V { { { { { E w 7 6 6 6 q E { { { { ....x 8 6 # $ = ; & 1 # ",
"E w 7 9 e E V 9 6 6 6 7 9 6 6 6 e ^ ^ x q 7 6 5 & * > 3 M 1.=   ",
"I { ^ 9 6 6 6 6 6 6 e { E 9 6 6 6 7 8 6 6 6 6 * 5 w X.q.p.p.r + ",
"8 ^ { e 6 6 6 9 b ! { { E 6 6 6 6 6 6 6 6 6 # 1 6 9 I | =.p.p.* ",
"6 8 I e 6 6 6 9 { { ../ 9 6 6 6 6 6 6 6 5 $ # 6 6 6 7 q D 6.s.> ",
"& 6 6 7 6 6 6 6 E { { 9 6 6 6 6 6 6 5 ; # - + 5 6 6 6 6 6 u q.1 ",
", & , 6 6 6 6 6 V { 9 6 6 6 6 6 - $ 1 h 6.q.w * 6 6 6 6 6 8 j - ",
"6 5 & & 6 6 6 6 b Z 7 7 7 6 ; @ 8 3.s.t.p.p.s.6 ; 6 6 6 6 6 9 + ",
"I 9 & 1 & ; 4 6 7 7 2 > & o & % 3.t.c 8 X.p.p.&.= ; 6 6 6 6 ,   ",
"5 # 4 p x 5 > - O - 0 g W g & ; p...8 6 J @.{ V , o , 6 6 6 $   ",
"& e { =.p.p.^ e # Z 8 ~ { ` 8 9 -...c c ^ { x 7 4 # o # & & X   ",
"e @.p.p.p.p.q.E 1 J q ` { { - 7 V { { { { w 6 6 , 1 b e w & o   ",
"9 @.4.4.8.=.b w 5 { { { { { 5 - 8 V ^ I 9 6 6 5 ; ^ X.^ | ~ *   ",
"6 w l w 9 7 6 ; , q g J I e 9 > & 6 8 6 6 6 6 = 8 e X.X.{ { w   ",
"6 6 6 6 6 6 4 & , 7 6 7 6 6 6 6 - & 6 6 6 6 - 4 7 7 8 h V w ^ # ",
"= 5 6 6 < = 5 w & 6 6 6 6 6 6 6 * % * 6 7 ; > 6 6 6 8 w 9 9 8 = ",
"> & & 4 w @.q...0 - 6 6 6 6 6 * 3 3 * @ & o 5 6 6 7 E { ^ ^ 9 = ",
"- - V =.t.d.d.d.6.5 2 6 6 1 - e { { | b h w 6 & 1 6 e E ..I 6 & ",
"5 D p.p.d.d.d.d.y.X.- , & 1 W >.y.y.t.6.,.-.&.E > = 6 9 w 6 &   ",
"q t.p.p.d.q.3.D 9 q q + x ^ | X.7.t.p.p.p.p.p.y.7.0 & 1 6 &     ",
"9 | X...w 8 8 6 6 6 7 5 X.^ D x V ^ -.6.y.p.p.p.e.7.J w #       ",
"6 c ..I 9 6 6 6 6 6 6 5 b 9 6 6 6 8 9 w b X.-.7.7.7.| ^ ;       ",
"9 I q 8 6 6 6 6 6 6 6 = 7 6 6 6 6 6 6 6 7 7 q h b J | I w &     "
};
