/* XPM */
static char *result[] = {
/* columns rows colors chars-per-pixel */
"128 128 58 1 ",
"  c #020202",
". c #080706",
"X c #090807",
"o c #070808",
"O c #0D0B0A",
"+ c #110E0D",
"@ c #13110F",
"# c #151311",
"$ c #191614",
"% c #1D1916",
"& c #1E1B19",
"* c #201B17",
"= c #221D1A",
"- c #26211D",
"; c #29231E",
": c #262321",
"> c #2B2522",
", c #2E2825",
"< c #2F2B28",
"1 c #322B26",
"2 c #332D29",
"3 c #382F2A",
"4 c #37302B",
"5 c #3B332D",
"6 c #3E3631",
"7 c #40362F",
"8 c #413730",
"9 c #453B34",
"0 c #4A3E37",
"q c #473E38",
"w c #4B3F38",
"e c #4B4037",
"r c #4C4139",
"t c #51453E",
"y c #54483F",
"u c #534740",
"i c #554A42",
"p c #5A4D45",
"a c #5B4F48",
"s c #5D5047",
"d c #5E5149",
"f c #62554C",
"g c #65584F",
"h c #655750",
"j c #665950",
"k c #6B5D54",
"l c #6F6057",
"z c #6F6158",
"x c #706157",
"c c #726359",
"v c #77695D",
"b c #786A5F",
"n c #7B6D61",
"m c #7F7164",
"M c #807265",
"N c #847669",
"B c #86786A",
"V c None",
/* pixels */
"VVVVVVVVVVVVVV      oXOOOO     VVVVVVVVVVVV ooo.    VVVVVVVV oVVVVVVVVVVVVVVVVVVVVVVVVVV@#OOX..XO#$$%=;:-%O  ooOooO o.  VVVVVVVV",
"VVVVVVVVVVVV    .O#=-&@OooOO                          VVVVo .X@$==#O   VVV#OOo. XOO#@@@++#&>121>-:>:==*=%O  %16864>=%$+.  VVVVVV",
"VVVVVVVVVV    #19risspy969e94-@          O+#&&=->-#    V .oO=2662<,::&$#$&&->,22<>>:%=>669uifffapiaiaiiu5<-,edjjhdsurre4-O   VVV",
"VVVVVVVVV  .#4uflccvmmmvcvvvldu62:=*&==>26eriiissdr>+OO.  $5uhjhddfddir868qtipfdapu,#<uhjkzcckczvvnnnnnnljddjzzccvnbvczgr4-%+  V",
"VVVVVVV .X$2ukcxzzcmmNNNNNmNmmmnckgfffghkklccccccvza2%#Oo%qjnnnmmMNNMnvkhhkkccxkcka2#,acccxckccnnnMMNNMNBmnccllvnmNmNmmbnksr9>#o",
"VVVVV  .#1uhccxlzzvmNmmmmNmmmmNmMMNNMNMNmnvclzllkzck0$O+:rkmmMmMNMMMNMncckcxkccckhau,=9kczxxcvnMMMMMmMMmmmvlllxnmmmmNmmmnnczkd5#",
"VVV  ..#2akcckllzlznmmmNmmmNmmmmMMMMMMMMmNncllllzcck6O#2ujnMmmMMmMMmMMvckxcxkcllkhkkr=2fcckkvnMMMMMmMMMMmnclllcnmmmmmmmmmmvczzd6",
"V  .+##-wkcckcllzzlcbNmmmmmNmNmmMMMMMMMMNmmnclllkzcj4O=ikknMMmMmMMMMmnvxkxkxckckkkkku:2acckvnnMMMMMMMmmmnclllkvnmNmNmNmNMmnvzzju",
"  O=;*>7yxcxxxxllllzvmMMNmNmmmmNMMMMMMMMMMMMxlllcxch4X=iccnnMMMMMMMMMcxlckkckkkclzcj8,qkccxkvMMMMnmmbvvvclllxkcnmmMmMMMMMMNnvckf",
" O;5339wyxcxxxllllllcnMMmmmmmNNmMMMMMMMMMMncllllkcckq+#qkccnMMMMMMMnxxllxxxccckcckla48hkxkxxvbnnnnkfpyysgkllxxxvnMMmMMMMMmmMmvzj",
"+#509900tkcxxxxxzclzcvnmNmmmmmmmMMMMMMMMMnccllllxkcca&X2dncnMmMmMMvcxxxxxkxkllzzccjq4pknkxxxxxccjirr090etpfkxxxxvvvnnmMMMmMMmmcj",
"+;9www00tfxkkhhfggkklcvvbbbbvvcccccvvccbclxlllllxxxch2X&iknmMMMMMblkhhklcxxxllllcka4qhckxxkxxxxft099000090rpfkxxlcczcnnmNmMMmmcj",
"#30ww00w0tppiittttppdfgjjkllzzllllklkkkkkkllllllxkxckr@+6kcnmmmmvxfpwyifklllzllcch85akczkkcxxkgt0000000w0090rpfjkllkkcvnmmmmmnzd",
"*7ww0000000000000000rrtuisdggkgkkkhdppafllllllllxxxccd:X,dnnmmnnxft0900yshhlkzzcjq<wjcllcxkxxft990000000000090tpgkkcckkcvmmmmnld",
";7ww00w00000000000000009eeerrtyyutw0090phcxlllllxxxkch2X=pcknnkcgp0000090wwdhzckr<5hczllxxckft090000000000000090tdkkkckzzzzvvzkd",
";9ww000000000000000000e0009eeeee00w0000wflxlllllkxxcck6X%injkkkjpw90000000qthzcp1,ulzlckxckat000000000w0000000w00rpkzzzzzllllzjd",
";7ww0w000000000w0000www00w0w00000w000090pjccxxllxkkxcj1.%pcxxxjpww00000w000rdch2&6kzzlllxkpt9w000000wwww00w00w0009rpkxxxxkkfpsgp",
"$10w0000w00w00000000wwtwwwwwwww00www0000efkxxxxxccccca*.;fcxxxse9w000000000tkxq#=accczcljtww00000000999w0ew00000009tfxxxxhptwtti",
".*7w00000000w00000000wwwwwwwwwww0www0000eepfhggghhkzkr+X2jvxjfe00w00000090tdkk>O>jckkkkft900000w00w7,=;>3590000w0009tjxxgiw90008",
" O7w000000000000000w00w000w0wwww0ww0w000w00tyyyyiipfa2O#0lcjfe09w000000000tkch1O>fjiyppr090w0000w09>#$*$%=19e00000000pfptq000081",
". =0ww00000w0000w0000000w9000w0000w000w0ww909009090w5#O;sckdt000000000w009rfck8#=tt0999000000000071**491%%*38ee0w00000ww0000007=",
"@.O19ww0000000w000w0000www00000000000000000000000007* +5flft000000000000000ikvr$#7e0000000000wq95;*=9gks4;%*30ew00w000900000005*",
"V+ +10000000w0000w000000w000000000000w00w00w0w00ww9,+.*9sst0w0ww000w0000000thci=O;9e000000000082=%3pkcvks4=#;7w0000000000000005*",
"VVXO@;70w00000000000000000w0000ww00000000000000www7$.#4eyt0000ww00000000000rfki;O#400000000995>:>0fkxxkclu1@%30w0w00000000000w9=",
"VV+. X*1900eewww000000w000000w00000w00w0000w0wwet9>OO;7eww000wwww0000000w00wti0,+O=40ww099851>,9pkxckxkcck9##>90000w0wwww0000w7$",
"VVV    +*1579wwww0000000w00000000000000000000wwew3$.$5we0w0w00ww0w00000000ww0w03%O@;8q9311126qihkxxcxxkxlva;O#2e00000wwr000ww01+",
"VVVV     O@%;39weeew0000000000000w000000000000we7=O+10ww00w0000w0000000000000wwq1#@=>,:=>49uakcccckkxxcxlcc9@O;9w00000ww0000w9=#",
"VVVVV  .@Oo.O#=170wwwwe0000w0000000w0w00000ww0w9>+O;wwww0000w000000000000000w0q81#++@*>6rdkzccckkcxxkxkkgflp-X*70000w000000w01#$",
"VVVVV.O*692-#X.O*178000ew000000000000w00ww00074=+O*9w0w000w00w00w0000000w00097>-%+  O2pkcvccckkcxxxcckhatrpt> +30000000000ww7=+*",
"VVVV X#2dlks01#O O*;37800000w000000000009w971-#. $7eww00000000000000000000091*X... o,dvcckkxxcckxkxkhatw90t9= .:90000w0w0007>@.+",
"VVV  O,slcccckp1@. .O$;79ew00000000ww09755,*@O. #4ew000000000000000000000091#..#@%OO6jczzkxxkcxckckfiw000r0;#OO&7www0000097>$+.V",
"VVV O>pkllllllxfr1*+X.X#>8ww0ww0009531;;=%$$#$+.=9w00w00w000w000w009099909>@O+*>1:#O8kvcccckckkxkhit000w091@O##O1tpte00073;$+XVV",
"VV  =ukckccllkcxkhuq2=$@#*15699852>*%=;259q2==#O=8ww0w000w000009721>>>>12<=%&<<4<,$O9jcxkkgkhffppieweww96:@.+::+&6uuq865,=$#XVVV",
"V  #qkckckkclxccxnckhau8,===>11,1>>,4quahkd4&:=+$3ww00w000w0093;***=;->:::=:<<<44:@O5gkspptttrttr009931>&OX+&>:$#&:::&&=>>-#VVVV",
"V O2hcxxxxkkxcnncccnncckau966668wupdjlxnnca,$:=++>9w0w00w0083;===,8qwtwq84<,=&:<<,#O4iyr0090000985,=*$###@#######@##@XO$=>:VVVVV",
"  =ickxkkcccnnnnMnnnnncccvkkhhjjcccncckkkna>+==$O$3q0000093>=*;4wdkccnnckhu6<&%:<:@@300000099983>%+. OO$,1:&@@#&--::&&&$##$###VV",
"  3hcxxxxxknnMMMMMMMMnnlxxcccccccckllcxczka<O#::#O=60qq84>==>6rfkccxlxcckcnkd6$+::##>80988532>=$+X+#*=19ipr869rruurrrq2:$##&=,6V",
" O6fkzxkkknMnMMMMMMMMnnckxckxkcnnnnncnnnnnh6+@:<&O+:qt8,**>8ifkccxxxllkcckckca:+=:##=141;==*#OO+#=;29pgkccccnvnvncvvzhuu6,&=-=:6",
" $6ifkkxcnnMMMnMMMMMMMncxkccxknnMMMnnnMMnkk6+o:<:$O$8w,#%5dcvnnnncxxclkcckkcca>+&:&@$=&#OO++##&>9udjkkxxckczkzlllzzczzzkdau6=$$-",
" *8wpkcxkcMMMMMMnMMMMMnckxckcnnmMMMMMMMMnnku#o&<<,==,;+#4fnnMMmmMnncklzckckcca>+:<:# O$>>135qqphklxccxclkzzkzzllhddjkjjkkzzkr=OO",
".*8wikxxcnMMMMMMMMMMMMnclllllnMMmmmNmNmmnzci&o$,<<:$+oo:pnMMMMMMMMMnlklxllllch2=<<=:=:qahfhjkkccccvvvccllllllzkdiwwtittiflcvki&.",
".#5wthcxxnMMMMnMMMMMMMMclllllcMMmNmmmmmmncki=o$,<<:#oo&rcMMMMMMMMMMnnkllllllcjq>::5updknccccccckcvnnmnvclllllkst00900090ugkcvc0+",
"X$3wtfcxcnMMMMnMMMMMMMMclllllcnMNmmmmNmmnnka=o#<4<&o &qknMMMMMMmMMMMncllzzckccp,&5fzcnzzccckkxcvnmMNMNmvcczzldt0000000000dlzkcf=",
"+=80tfckcnMMMmnMMMMMnMnnllllxcnMNmNmmmmmzkka=o#<<:Oo#qknMMMMMMMMMMMMMnzkkckcchq><azczzzkckckccnnmMmmMmNmmnbvgt00000000000fkccvh>",
"O=9wtfcxcnMMMnnnMMMMMMnnlllllxcMmmmmmmmmcczi=o#<,+ +4hnmMMMMMMMMMMMMMnkkkckcjq,2ikcckckcckcknnMMMMMMMMMMmmNvse9e00000000whkxkcg2",
"+>7wrfcxcnMMMMMnnMMMMMMnclklllxxnnmmmmmncccp$ #:%X@5dnmMMMMMMMMMMMMMnclzcccku,>rkczkckckkccnnMMmMMMMMMMMNmNvie0000000000ijcccck8",
"+19wrackcvMMMMMMnMMMMMMnclzzllllkvnvmmnczccp$o#$X+5hnnMMMMMMMMMMMMMnvcllxkka2;8hnkkcckckkcnnnmMMmmmmmMMMmNBzy9ee0000000wdkxkxcht",
"+30wrpczcvnMMMMMMMMMMMMnclllllllzzzccccczcca&oOoO,acnMMMMMMMMMMMMMnvzlllcca4:8hcckckcckcccnMmmMMmmvvnmMMmmNlte9e0000000wdlckxkki",
"+7w00tgkkxvMMMMMMMMMMMMcxllllllxzkkkjgfffjxp;O O=rzvnmmMMnnnnnnnvvclxxllch9:8dczllllllllcnMMMmMMnnnnnMMMMMMgw000000w0000fkxllxka",
"O3w00wtppfkcbbnMnnnnnnvcllllxxllhfaitttretyt;O.@6jccvmMMnnckcccckzlkklxckr;<plclllllckkcnMMMMMMMMnnMnnMMMNMfw9900000000tfkxxlxka",
"X1000090wtyskkxcvcvcvcxklllllkdpurq0090990w7=X $qklccnnnnklkkkkkklzlllxcf3*8dlclllkczzlcnMMMMMmMMMMMMMMMMMMdw0000000000pkkxkxxkh",
" ,000000090wtpsgkkxkkckxlllkdit0qq0000000ww5# .*9dkzzzczllzcxlclzlllxxcxt-:9uhlcllzclkznMMMMMMMMMMMMMMMMMMckauw0wwwwwtphxxxxxxkh",
" >9w000ww00000wtpfhkxxxxxkdiw00000000000www5# X19pkzlklzxxkkxxxxzlllllck9*>9waklkxxkxkxvMMMMMnmmMMMMMMMMMncxkfapspaddhkllllzxxkk",
" =8w000000000w000tipfhkkhpw0000000000000www1+ O1eiglllllxxcxkxxxzcxccccj9=19wuhccxxxxxxcnMMnMMnnnnnnnMMMMxxxxllkkllxxxxllllzkcck",
" #500000000000000000tiafy090000w00000000wtw1+ +10ijclcllxxxxxxxkkkkkkhhp2%>90rhzccccxxxccnnnnncncncccnnncxxxlxxxxxxxxxllllkckcck",
" X10ww000000000000090www0900000000000000wew3*X@19tfzlkzcxxkkfdssppiuuuw7%+-8w0pkckkkxkkxkccnxkkckkkxxcccxlllllllllllxlllllckcckk",
"  %7w0w0000000000000w00000000000000w0w000ww7*X$30rsxxcxkjfptteeew000000=..>900tpddddddsffhkklxxxckcccckcxxxlllllllckxxxxllxxczll",
"  O1ww000w00000000000000000000w0000000000ww7*.$7e0pkxkksir0099w90000008*.X20w000wwwwwwwwwtipfhklckkkkkkjkkxllllllllxxkxxzzlllllk",
"V  =9w00w0w000000000000000000w0w0000000wwww1+ ;9w0tgkptw09000000000w003$.O20000q099000900090wippdhahappupfkxllllllxxkxxklkjhhhhh",
"V  O1ww00000w00000000000000000000000000ww97*.O3ew0ryte00000000w0000009>#O+>q00000000w00000000090wwww00qqwwdkxlllllxkxxxxkhputwpu",
"V   %9e000000000000000000000000000w0000w03=#@;7www000000000000000000w9=#+@=8ww0000000000000000000000000009ygllxxlkczxxxgst000099",
"VV  +>0000000000000000000000000000wwww93;##=1700w0000000000000w0000002*##+=7ww00000w0000000000000000000009whlxxxlczlkgfiw0000003",
"VV   $7w000w0w00000000000000w000wwtw93>*++*3www00000000000000000000w8=+$$O#7ww00000000000000000000000000000akxxxxhhaptw000000091",
"VVV  .-9ww000000000000000000000www07,*#++$,9wwww00w00000000000000ww01##-=++10w000000000000000000000000000q9ujxlhdpu0w0000000009,",
"VVVV  O>wwww00000000000w0w00wwwwq64:$###&=19r00000000000w00000000ww7&@&<<@o:8qrwwwww0000000000000000w0000w9wpfste00909000000007=",
"VVVV   O3www000000w0w00000000ww94,=&=:::=$#100000000000000000000ww7=@#:<<$o#19w000000w0000000w0w0000000000w0et0000w0w000000w0w7@",
"VV .   .=70wwwqw0w00000000w0098>=$#&:,,<:#O=9000000000w000w00000w9>+@=,,:$o $13333357900000000w0w0000000000009000000000w0000091.",
"V O$#O#X+*,80ww000w00000000083-*=&#O@$&::$O$6r000000w0000000000001#+&=&&#@  .+#@++##*17000000000000w00w00000ww00w0000000000007$ ",
" .@$&:,@XX+$,4qw0wwwwwww0ww8;*=8i9:#o oO&$o#20000000w0000000wet04*O+@OOoO#@OOOO##+X.X#,9ew0w00000w00000000000w0w00000000000e9=  ",
" O$&:22:$+++O$,8wwwwww0ww03-*>rhckaq<#ooO#Oo*6ww000000000wwree91#.   O$>4966668qq951*+$3ww0000000000000000w0000w00000w000er0>+  ",
" O%-<22<::=*+oO=79wwwww0q1=-7pkcccckfq:#o@+oO:9q000000wwwww05>*O  O+&2rdjjkzzzkkkkhfr*O=9e00000w00000000w00wwwww0www00000e01+  V",
"O#=,<<<<<<12,%Oo*>378883>=>whcccxkcvvhu<#O@+o@<9w0000wwrr97=$+O+$;39ufzccnnmMnncccvvk8++3weww0000000000w00wtewwtew00000w0r1@   V",
"O#:22<<<4<<46<$o@===1>>=-3izccllxkckccd8:#@$oo#5ww000we04;@OO#=3eyfzccccnnmmNmvzkcccvd:.=8www00w000000000er053579wweew0004@   VV",
"o%,2<2<2<<4<<:$$19931113wdzcczllxckcccku4&@$$oo:9r00w07>#O+%;59tfxccccvnmMNmmNmcklkccx8++30w000w00w0000www7>#+#*,5790ee08%   VVV",
" &,<<4<<<<<:#o#<ykkfdiidklcczlllkxkcknka6<$+&#o+100071*++*150w0yjczzcvnmmmmmmNncclkcccu*.=7w00ww0000000w07*X   X+$=,3509;.  VVVV",
"O&,<<<<<<4:#oO4alxxxcxcxccklllllxxckkkzjiu<#O$oo#>73=++$,500w0tflzccnmNmmNNmmmnckkckcki,+O;70www00000ww01$  +**+OX+#*=1;O  VVVVV",
"o&<<<<<<<,$o+3flclllxxxxlllllzllkzkkczkzkki,.O+..$*$##=790r00thkzcvmmmNMmmmmmmvlllllcjy7;+O*50ee00w0wt9>O .*3971=$@OOO@@   VVVVV",
"o$<<<4<4<=O+4hccllllxxxxlllllllzzknnnnnncczu*  X   +=370r000rakccbmmmmmmmNmNNbzllxlcxft07;@+*5eewwwtw7=O +;9www073>=#@+       VV",
"o#<<4<<<:+X1hcxlllllllllzlllllzzcnmmmmnncxvk0&O   +>70000900pkccnmMMmNmmNmmmmbclkxxxxfw0093*+*3900003=+ +,9trwww00973;-#O       ",
" o:<4<4<&.=pncllllllllllzkzlzkkcnmmNmmmnnckckq*O@=30r00000rpkkkcnMmMmmNNmmmmmmmcxxxcky00ee03*#*>>=>=*@X+;9wwww09eew009753=+ ..  ",
"  O=<<<:#O2hcllllllllllkllklkcnnmmmMMMMNnzkcvf>#;90ee0000efkckcnmMMMMMMMMMMMMMMncxkchu9q0ww07,*+oo@$=$O#20000q000000eetww5;;;>*X",
"   O$=:%O ,iczllllllllllllxccnnmmmMMMMMMnczzch2#>0e000000ykxckknmMMMMmmMMMMMMMMMclcca09000wwt9,O  #:<&O$4000000wweeeyyyte099997>",
"V   .OOO  &rczllllckllzlcnnnnMMMMMMmmMmNnczzcj6#*9e000000sxxkcknnMMMMMmMMMMMMMMcclcku0000000we7*oo$<<$X$5w0wtiffffffjkjffpte0007",
"VVV    O  &ucllllckcllznnMMMMMMMMMmmmMmMMnczzkq#$7e000000fxxxxkcbMMMMmmMMMMMMnnlxxxjt900w000w095=+O&:#o$59wigkkxxcvccccxxjjfpt09",
"VVVVV  OO#8jclllkcckknnmMMMnMMMMMMmmmMMMmmclccu&@30e0009efcxxxxkvmMMMmMMMMMMnnclxxxfw000000000w04&XO#+X$59tfkxcnbMbbMbbvxxxxkgsy",
"VVVVVV O#2dczlllxckccnnMMMMMMMMMmMMmmMMmmmclzcd-O=000009efxxkxxkcnMMMMMMMMMnczllxxkpw0000w0w00wwq2=#X..$59yjxxcnMMMMMMMbbvxxxxxj",
"VVVVVO%%4dkcllllxkkxnnMMMMMMMMMMMMMMMmMMNmcllvk2O*7e0009efxxxkxxzvMMMMMMnnnczlllxxky00000w0000000wu8*  $79pxllcMMMMMMMMMMMcxxxxk",
"VVVV*=,4flclllzlckxnnMMMMMMMMMMMMMMMMMNMmclllcz6++3w0009efkxxxxklcbmMMmmnnlllllzxlfw0ww0ww0000000ujh5O $79skllnMMMMMMMMMMMMcxxxg",
"VVV:,13dxxlxllllkcxnnMMMMMMMMMMMMMMMMMMbccllzccr%X>0e000wpkxxxcxzzcbnbbvccllxkccxki00ttttww000090txh3+$3quflllcMmMMMMMMMMMMbxxkd",
"VVV>28acllllllllckkcnmMmMMMMMMMMMMMMMnvczzllzljy*O-90009wpxxxxxcxzzzccccllllckkcxfw0wwtw0w00w000rdki$#6ahhkxllxcnMMnMMMMMMMvcxhp",
"VV>>6uxxllllxclxcccnnmMMMMMMMMMMMnnvvcxxllllfiie-O*7e000wpkxjjffkccxllllllllxxxxls0000000w00090tfxf1@>axkkkclllxcvvnnnMMMMMvckki",
"V1>:6hxxllllkkckkcnMMMMMMMMMMMnnvvccxkccclfiter9;X$70000wetpytttysgjlxlxllllxxkxlsw9090qwttiiiijxkq#$0kcckckllllkzxcccvnMMbcxxht",
"V=>3whxxzkcccxxxknnMMNMMMMMnnvccxcxcccxjdpt000e0>+@30000w0000000errypglxllllllxxlfiwwtaafggkgjkcci=#2hzzckcckxkxcckhpifknvvkxxhq",
"$*,8wdxxlckkxkkxkcnnnnnnnvvvcxccccxkjfpytr0000er1+@30ww0w0090009ee00eyjxllllckxxxkhadgkkxxxxzlccd>+:pzckkckcxxxckcki00rifkccxxkq",
"+*19wihczlcxkxxxcccvnvvccxkxxcxkhgfitrw0090000rr3@O1000000000000e0900tfxxlllxxkklxxxxxxxxcxcccvk6O$qkcckkcxxxxxkxxpw000wtifkkchr",
"X$300walllkxcckxkxkxkkxxxkxxxkhpitw009000000000r7%.-8000w000000we0e00efkxxxlkccxllxxxxxxxkxkkkg0&#6hcxckkckxxkckxkiw00000wwihkju",
"O=7000ykllllllllxlllxxxlllxkdpww000000000000000w0>X@70w00000w00www000wfxclllllllkxxkxxxxxxkkdi9=#2dlzlzzcccckccccju000000000tsgp",
"+=7w00tsxxllllllllllxxxxlhduww00000000000000000w03@.*7ww0w00000000000wdxcllllzllxxxxkxxxcxksy9-@,illzcvnnnncckkckhu0000000009tii",
"X*7ww00tklxxllllxxllccxhpyww000w000w00000000000ww9=.+19w00000w00w0000tfxzlllllllxxxxxxxckfpyr,#;ukzcvnmmMMmnckccxdwwwww000000qtr",
"O*700wwwsxxxlllllxxljdiwwww000000000000000000000ww7*.$3ww000000000000wdlczllllllckkxxxcjprrt4#@5jcvnmNmmMMmnckkclpw0wwww00000wq8",
"+*7w000wtjcccccclkhaiww000000000000000000000000w0w01@+=9w00w0000000000dlclllcxklxllccxfyrww4%X%rvnmmmNmmMMncxxcxktw00wwww0000095",
"X=7w0000wyjxxkjjapwwww00000w000000000000000000000009=X$3w0000w00000w00slclllkxclkckcjft0rw5%.O,fnMMmmmNmnncxkxxxhtw00ww000000093",
" =7w0w0000ysspitw000w00ww0000w0000w0000w0000000000w01X@3ww0000000w0009plclllkckxxxxksewee8=O.*exMMmNmmmmnxllclxxgt00000w000www8;",
" =7w0000000000w00000w0000000000000000000000w0w0we0007@+1ww0w00w000000qalclllxxxxlxjae0we0>+O*3ycMMmmNmmcckllllcxgtw00000000ww01+",
" *70000w00000000000www0000000w00w000w0000w0000weewwe4+X;0r00000000000wdxcxxxxxxxckdw00w03#+;59yxMMMMnvvclxllxxxxft00000ww00007* ",
" *700000000w0000w000000000000000ww00000000000000wew9=..-9r00w000w0000wfxxxxkxkxxcjt00ww1#+=709efvnmbvckxkxkcxxkfyw0w0000000w7=. ",
" +1ww000w000000w000000w0w00w0000w9000w00000w0wwwew7=X  -9r0000w000000wslxxxxccccxaq0ww3*O*30w00ykvccxxllxcckkditew000w0000w9;+  ",
" .;9ww00000000000000w0000000000w000w000000000wee91$X   =9te00000000w00ihcxxxhffdau00w5*.O;7ew09tfcllxxcxkkfpyw00ww0000000w01#. V",
"  @30w0000000000000000w000000000w0000000w000ww83=+     @1ww000www000w9ykckfptewwewww7*XX%39w0w9esclxxlgfptrww000w0000000ww4%+.VV",
"V  %5rww00000w000w0000000w000w00000000w000ww03;@    VV  *50w00www00000yffpw0w0w0wwr9;X $39000w0wpklkfpyrww000000ww0000w0w7*+.VVV",
"V  .=8ew00000000w0w0w0000000000w00000w00ee05>#X   VVVVV +;9w0000000000ttew00w000ww91+.O=7w0w0090tssir000000w000w00w0w0ww8=O.VVVV",
"VV  O;90w00000000000000w00w000000w0000ww083=@O  VVVVVVVV #3ww0000000000000ww000ww93$.+$=39w00000eee000000000w0000000www9,+ VVVVV",
"VVV  O=700www00000w0000000000000000000095=$OX.VVVVVVVVVV O=700000000w000w000000w04*..=>%*400w00000000w9w0000000ww0000w91@$OVVVVV",
"VVVV  O#300w000000000w0w0000w0w00w0ww97>$$$VVVVVVVVVVVVVV +;9000w000000000w0000w7;@.VV5*O=40e0w000000ww000w0w00000w0w01#$3VVVVVV",
"VVVVV   +>9r000w000000w0w00w0w0000w08>$$;1VVVVVVVVVVVVVVV  #1900w0w00000000000w03#O VVV>#@*40rw00w00000000000000000wt7*#4VVVVVVV",
"VVVVVV   X=7ww00000w0000000000000w05=$*1VVVVVVVVVVVVVVVVVV .#30w00000w000w000007;O VVVVV+@O#>70rw000w00ww0w000000wwww,+=9VVVVVVV",
"VVVVVVVV  .;9t9ww0wwww0000w00w00r92*#;9VVVVVVVVVVVVVVVVVVVV  =5ew000000000000w91@  VVVVVV%O.O%>70wwwwwww0000000w00e01$#;VVVVVVVV",
"VVVVVVVVV  O>0ww00www00w00w0000w02$+%3VVVVVVVVVVVVVVVVVVVVV  .;8ww00000w0000003$  VVVVVVVVO   O$170wweww00000w00ww01@X@VVVVVVVVV",
"VVVVVVVVVV  @3000wwww0w00www00003$. VVVVVVVVVVVVVVVVVVVVVVVV  O>90000000000009=. VVVVVVVVVVV    +=370ettw00000w0ww1@  VVVVVVVVVV",
"VVVVVVVVVVV  @300000www0www00087&   VVVVVVVVVVVVVVVVVVVVVVVVV  +19w00000000001+  VVVVVVVVVVVVV    @=39wtw000000w03@   VVVVVVVVVV",
"VVVVVVVVVVV   %7ww00wwww0000097*X  VVVVVVVVVVVVVVVVVVVVVVVVVV   @170000000007=. VVVVVVVVVVVVVVVV    O;5w0w000ww05$   VVVVVVVVVVV",
"VVVVVVVVVVVV  +>8ww00ww9777997*X  VVVVVVVVVVVVVVVVVVVVVVVVVVVV   +=500e000001# VVVVVVVVVVVVVVVVVVV   .*40e00wew5=   VVVVVVVVVVVV",
"VVVVVVVVVVVVV .#,9etw93;$$***#.  VVVVVVVVVVVVVVVVVVVVVVVVVVVVVVV  .%35900009;X VVVVVVVVVVVVVVVVVVVVV  .@;9wrer5*O  VVVVVVVVVVVVV",
"VVVVVVVVVVVVV  O$1993;#O X++X   VVVVVVVVVVVVVVVVVVVVVVVVVVVVVVVVV  .@#=;=>11$.VVVVVVVVVVVVVVVVVVVVVVV   O*4003*X   VVVVVVVVVVVVV",
"VVVVVVVVVVVVVV. O$**@O  VVVV   VVVVVVVVVVVVVVVVVVVVVVVVVVVVVVVVVVV    .O+@$#X VVVVVVVVVVVVVVVVVVVVVVVV    @;;#.  VVVVVVVVVVVVVVV",
"VVVVVVVVVVVVVVV       VVVVVVVVVVVVVVVVVVVVVVVVVVVVVVVVVVVVVVVVVVVVVV   O++.  VVVVVVVVVVVVVVVVVVVVVVVVVVV    X. .VVVVVVVVVVVVVVVV",
"VVVVVVVVVVVVVVVV     VVVVVVVVVVVVVVVVVVVVVVVVVVVVVVVVVVVVVVVVVVVVVVVVVVVO.   VVVVVVVVVVVVVVVVVVVVVVVVVVVV      VVVVVVVVVVVVVVVVV",
"VVVVVVVVVVVVVVVVVVVVVVVVVVVVVVVVVVVVVVVVVVVVVVVVVVVVVVVVVVVVVVVVVVVVVVVVVV  VVVVVVVVVVVVVVVVVVVVVVVVVVVVVVV   VVVVVVVVVVVVVVVVVV"
};
