/* XPM */
static char *_87b5dab9ec2464abd487ae38fe38976Dco1h4vP5VasEdeE[] = {
/* columns rows colors chars-per-pixel */
"32 32 153 2 ",
"   c #0A0502",
".  c #1C0F06",
"X  c #120B08",
"o  c #1E1006",
"O  c #1C120B",
"+  c #251307",
"@  c #291407",
"#  c #251409",
"$  c #2C1708",
"%  c #2E1A0C",
"&  c #341C0B",
"*  c #3A1F0E",
"=  c #39200F",
"-  c #2B241F",
";  c #362112",
":  c #3A2517",
">  c #30231B",
",  c #3A2619",
"<  c #3E291C",
"1  c #2B2724",
"2  c #2C2825",
"3  c #2D2C2B",
"4  c #312722",
"5  c #342A24",
"6  c #392D25",
"7  c #322E2B",
"8  c #34312E",
"9  c #3D332D",
"0  c #2F3030",
"q  c #343434",
"w  c #3B3734",
"e  c #373838",
"r  c #3B3B3B",
"t  c #42220D",
"y  c #4D270D",
"u  c #552B0E",
"i  c #5C2E0F",
"p  c #4C2B14",
"a  c #432C1D",
"s  c #4A2D1A",
"d  c #532E16",
"f  c #5A2E12",
"g  c #5B3115",
"h  c #563118",
"j  c #593118",
"k  c #653211",
"l  c #6F3712",
"z  c #6F3813",
"x  c #64371A",
"c  c #63381C",
"v  c #6C3B1B",
"b  c #703712",
"n  c #733A14",
"m  c #793E17",
"M  c #7B3F18",
"N  c #443125",
"B  c #563723",
"V  c #593F2E",
"C  c #443831",
"Z  c #413E3B",
"A  c #643F27",
"S  c #7C411A",
"D  c #4D4037",
"F  c #4D443E",
"G  c #51443C",
"H  c #5C4B3A",
"J  c #6B4126",
"K  c #714427",
"L  c #7D4521",
"P  c #684A35",
"I  c #7E4F30",
"U  c #6B513B",
"Y  c #77583A",
"T  c #434242",
"R  c #4C4642",
"E  c #4D4D4D",
"W  c #524740",
"Q  c #535253",
"!  c #5E5D5E",
"~  c #656465",
"^  c #6C6C6C",
"/  c #737273",
"(  c #7A797A",
")  c #82451B",
"_  c #87481E",
"`  c #89491F",
"'  c #804721",
"]  c #854922",
"[  c #8C4B21",
"{  c #854E2B",
"}  c #914E23",
"|  c #945324",
" . c #9A5527",
".. c #965429",
"X. c #9C5729",
"o. c #9E5929",
"O. c #865D36",
"+. c #925D32",
"@. c #A15B2A",
"#. c #A7622C",
"$. c #AB692E",
"%. c #B16D2F",
"&. c #A46A32",
"*. c #B47130",
"=. c #807F80",
"-. c #848485",
";. c #888788",
":. c #8A898B",
">. c #939293",
",. c #9A999B",
"<. c #A4A2A4",
"1. c #A9A7A9",
"2. c #ADACAD",
"3. c #B0AFB0",
"4. c #B5B3B5",
"5. c #B9B7B9",
"6. c #BCBABC",
"7. c #C4C3C5",
"8. c #C9C7CA",
"9. c #CCCACD",
"0. c #D4D2D5",
"q. c #DAD7DA",
"w. c #DAD9DB",
"e. c #DCDADD",
"r. c #DDDBDE",
"t. c #DAD8DB",
"y. c #DFDDE0",
"u. c #E1DEE1",
"i. c #E1DFE1",
"p. c #E1DFE2",
"a. c #E2E0E3",
"s. c #E3E0E3",
"d. c #E3E1E4",
"f. c #E3E2E4",
"g. c #E4E2E4",
"h. c #E4E2E5",
"j. c #E5E3E5",
"k. c #E5E3E6",
"l. c #E5E4E6",
"z. c #E6E4E6",
"x. c #E6E4E7",
"c. c #E6E5E7",
"v. c #E7E5E7",
"b. c #E5E3E5",
"n. c #E7E5E8",
"m. c #E7E6E8",
"M. c #E8E6E8",
"N. c #E8E6E9",
"B. c #E8E7E9",
"V. c #E9E7E9",
"C. c #E9E7EA",
"Z. c #E9E8EA",
"A. c #EAE8EA",
/* pixels */
"s , O t n m n n ) | S c V G R E T R W C I o.*.*.o.] l ) X.X.# . ",
"; % # u [ #.%.$.&.Y R T Z r r r r r r T T T U +.@...[ o.X.X.[ $ ",
"p ..j f | %.%.O.R T T r r r r r T r r r T r r T P ..o...X.X.S $ ",
"[ o.' f [ &.H Z r r r r r r T r r r r r r r r T r G { o.} m f & ",
"[ X.S y v C Z r r r r r r r r r r r r r T r r r r r Z x l i . [ ",
"M o.} y C r r r r r r r r r r r r r r r r r r r r r r w p & t [ ",
"n ..X.1 r r r r T r r r r r r r r r r r r r r r r r r r 8 p i ` ",
"b  .J r r r r r r r r r r r r r r r r r r r r r r r r r r 4 l M ",
"b ' 7 r r r r r r r r r ! 1.1.1.1.1.1.1.E r r r r Z r r r q d b ",
"n B e r r r r r T >.6.6.0.n.k.k.x.n.k.N.9.5.6.( T r r r r r 5 b ",
"l 5 r r r r r ~ t.a.Z.N.Z.Z.Z.C.N.N.C.C.C.C.C.u.t.Q r r r r 0 f ",
"f q r r r r r ,.C.C.C.C.C.C.C.C.Z.N.C.C.C.C.C.N.C.=.r r r r e , ",
", e r r r r T a.C.N.C.C.C.C.C.C.C.Z.C.C.C.N.N.N.C.9.r r r r r 1 ",
"- r r r r r T N.N.Z.C.Z.N.C.N.N.N.N.N.N.N.N.N.N.N.0.r r r r r 2 ",
"1 e r r r r T N.N.y.^ Q Q :.p.N.N.N.u.( Q Q ;.u.N.0.r r r r r 0 ",
"1 e r e r r T N.N.-.r r r T 4.n.N.C.,.r r r T ,.N.0.r r r r r 0 ",
"2 r r r r r T n.N.( r r r r 2.N.N.N.>.r r r r >.x.0.r r r r r 8 ",
"2 e r r r e T n.N.2.E r r ! 8.k.N.N.6.Q r r ! 6.x.0.r e r r r 0 ",
"2 r e r r r T n.N.x.5.3.3.8.x.x.x.x.x.6.4.2.7.a.x.0.e r r r e 3 ",
", e r r r r T 8.a.x.x.x.a.x.k./ 0.;.x.x.a.x.x.a.a.5.r r r r e 2 ",
"d q r r r r r ~ 3.5.w.u.k.N.k.-.0.>.x.x.x.a.0.4.2.Q r r r e e - ",
"l 2 r r r r r r r r ;.<.n.k.n.k.x.x.x.x.a.,./ r r r r e r r 8 d ",
"b 6 q r r r r r r r r E n.u.p.k.e.x.u.u.w.r r r r r r r r r 2 n ",
"b f 3 r r r r r r r r E N.3.6.p.( x.1.7.w.r r r r r r r r q : n ",
"b l a r r r r e r r r E 0.>.<.0.E 0.-.1.9.r r e r r r r e 1 t l ",
"l b k 5 r r r r r e r r T r r T r T T T F r r r r r r e 0 g @ l ",
"l l b g 3 r r r r r r r r r r r r r r r e e r r r r e q s k   i ",
"b l l l f 7 e e r r r r r r r r e r r e r r r r r e q s g o = @ ",
"& u k l b g 7 e r r r e r r r r r r r r r r r r r 7 a $ @ X v y ",
"k t * @ o # & - 0 r r r r r e r r r r e e r e q 1 & t k n t L [ ",
"n X.X.x & l l l h 6 0 e e e r e e r r e r q 8 J S n n m  .] x o.",
" .%.X.& l l l l l l k a 7 3 0 q q 0 0 2 N K ..o.@.#.$.%.o...= o."
};
