/* XPM */
static char *e0cb76e431874a08d6152811f903a4ee0hwxkLGwwJn3bDhI[] = {
/* columns rows colors chars-per-pixel */
"32 32 200 2 ",
"   c #0B0602",
".  c #160C04",
"X  c #180E07",
"o  c #1E1006",
"O  c #1C120B",
"+  c #1D1D1D",
"@  c #241206",
"#  c #2B1507",
"$  c #241409",
"%  c #2B1608",
"&  c #2D190B",
"*  c #331A0A",
"=  c #3B1E0B",
"-  c #2A1D16",
";  c #221F1D",
":  c #331F11",
">  c #3A210E",
",  c #24211E",
"<  c #2B231D",
"1  c #332215",
"2  c #392517",
"3  c #162529",
"4  c #123235",
"5  c #222223",
"6  c #2F2F25",
"7  c #312720",
"8  c #2B352F",
"9  c #383428",
"0  c #43220C",
"q  c #4C260D",
"w  c #47280B",
"e  c #4E290E",
"r  c #532A0E",
"t  c #5C2E0F",
"y  c #5C320E",
"u  c #422511",
"i  c #462B16",
"p  c #4E2B13",
"a  c #542E15",
"s  c #5B2E10",
"d  c #4B331A",
"f  c #563417",
"g  c #5C3214",
"h  c #53351D",
"j  c #5A3419",
"k  c #673D0F",
"l  c #643211",
"z  c #6F3712",
"x  c #613C14",
"c  c #6E3C12",
"v  c #63371A",
"b  c #65391A",
"n  c #6B3A1A",
"m  c #703712",
"M  c #733A14",
"N  c #793E17",
"B  c #733D19",
"V  c #7A3F18",
"C  c #4B3622",
"Z  c #4B3E2C",
"A  c #523720",
"S  c #543C24",
"D  c #653E22",
"F  c #33443D",
"G  c #7B4A0E",
"H  c #6E4011",
"J  c #7E4E14",
"K  c #7A421B",
"L  c #5A4229",
"P  c #444235",
"I  c #4B4735",
"U  c #5B4C38",
"Y  c #53513C",
"T  c #664024",
"R  c #7A4824",
"E  c #675036",
"W  c #7E5530",
"Q  c #7E6530",
"!  c #0F3C44",
"~  c #07414F",
"^  c #1E474A",
"/  c #01475A",
"(  c #064958",
")  c #164B54",
"_  c #12505A",
"`  c #3C4C43",
"'  c #3F524B",
"]  c #234E52",
"[  c #284F52",
"{  c #345A58",
"}  c #014D62",
"|  c #015064",
" . c #02566B",
".. c #01596F",
"X. c #015D74",
"o. c #225C64",
"O. c #07637A",
"+. c #176C7C",
"@. c #326063",
"#. c #3E727C",
"$. c #424B42",
"%. c #45564D",
"&. c #665C43",
"*. c #85500F",
"=. c #82451C",
"-. c #85491E",
";. c #894A1F",
":. c #8A5416",
">. c #9C5E12",
",. c #98641E",
"<. c #A36214",
"1. c #AA6615",
"2. c #AD6814",
"3. c #B46C15",
"4. c #B96F17",
"5. c #BD7116",
"6. c #804721",
"7. c #864922",
"8. c #8D4D23",
"9. c #914F23",
"0. c #8F5128",
"q. c #935125",
"w. c #995527",
"e. c #975428",
"r. c #9C5729",
"t. c #965D28",
"y. c #9E592A",
"u. c #A15C2A",
"i. c #A6622C",
"p. c #AA652D",
"a. c #A7682C",
"s. c #AE6A2E",
"d. c #B16D2F",
"f. c #B57130",
"g. c #C27416",
"h. c #CD7C17",
"j. c #C67718",
"k. c #CC7A18",
"l. c #D07D17",
"z. c #D07D19",
"x. c #966F56",
"c. c #8C796D",
"v. c #D68119",
"b. c #DC841A",
"n. c #E68A1C",
"m. c #EB8D1C",
"M. c #F6931E",
"N. c #A18976",
"B. c #066C85",
"V. c #04728D",
"C. c #0F748A",
"Z. c #177689",
"A. c #037592",
"S. c #0A7B95",
"D. c #057E9C",
"F. c #127C95",
"G. c #2B7E93",
"H. c #537F8A",
"J. c #04809F",
"K. c #1D839A",
"L. c #0483A3",
"P. c #0489AA",
"I. c #0A89A9",
"U. c #168DAB",
"Y. c #048EB1",
"T. c #0591B4",
"R. c #0797BC",
"E. c #0599BE",
"W. c #159ABB",
"Q. c #3D92A7",
"!. c #3995AC",
"~. c #3FA2BC",
"^. c #6F8F98",
"/. c #789295",
"(. c #6A9BA7",
"). c #48A1B8",
"_. c #71A3AF",
"`. c #6DA7B5",
"'. c #059DC4",
"]. c #06A0C7",
"[. c #05A4CC",
"{. c #1CA1C3",
"}. c #05A7D0",
"|. c #05A8D1",
" X c gray52",
".X c #A59890",
"XX c #AEA49C",
"oX c #8AAAB3",
"OX c #9EB8BF",
"+X c #ABAEAE",
"@X c #BBC4C6",
"#X c #B3C9CF",
"$X c #CDC9C6",
"%X c #CBCBCB",
"&X c #C2D6DB",
"*X c #D8DBDB",
"=X c #E5E6E7",
"-X c #ECECED",
";X c #F5F5F5",
":X c #FEFEFE",
/* pixels */
"d 2 O 0 M N m m =.9.K m m m z S F.V._ ! U W d.f.y.-.z K r.r.$ O ",
": & $ s 8.u.d.d.f.f.y.M m m n F.[.T.X.X.L.|.T.K.@.$.L 8.r.r.8.% ",
"a e.j s 9.d.f.f.f.f.y.q.q.w.{ [.|.|.[.'.|.|.|.[.B.X.X...) E V % ",
"8.r.6.a 8.d.f.f.f.f.u.r.r.&.[.|.|.|.|.|.|.|.|.|.P.X.} / X.X.8 * ",
"7.u.B r V r.s.d.f.f.p.y.t.Z.E.}.|.|.|.].{.{.].T.L.X. .| X.X. .D ",
"V r.9.r m 9.u.s.f.p.N.$X=X#XF.P.|.}.).&X-X-X#X~.L.X.X./ } X.X.Z ",
"M r.w.* z M w.r.u.x.%X+X:X;XOX'.|.!.:X X-X:X:X:XG.A.X.X.X.X. .D ",
"m w.u.n = m N w.r.x.:X:X:X=XoX[.[.oX:X%X:X:X:X-X^.X.X.X.X.X._ B ",
"m 9.r.w.% z z m V B +X;X-X$XK.'.}.(.:X:X:X:X;X-XH.X.X.X.X. .d M ",
"m 9.r.r.K * z z m m o.I.U.S.P.B.[.I.*X:X:X;X=X@XX.X.X. ./ / ! 8 ",
"M 9.r.r.9.q = m z P [.W.[.T.[.A.L.'.R.Q._._.!.D.X.X.X./ | / X.~ ",
"m M M M m m @ a z v /.=X`.E.+.F.'.R.'.Y.[.P.'.V.X.X... .X. .( 9 ",
"l m z z M z l $ q z XX-X*XE z h o.I.E.[.J.P.T.O.] I U W S h * s ",
"0 z z z z z z q   * c.XX.Xn z m z S T.'.[.V.S 0.r.w.9.8.M m s @ ",
"u = l l i z = = O 1 . > z z z z z z h S.D.( j z M M z m z m m z ",
"o $ . 4 S.% C %.L 1.3.4.4.g.5.4.4.3.1.,.Q 2.g.l z z z m z m m r ",
"l [ o.( V.A.}.}._ k.M.M.M.M.M.M.m.m.b.h.1.j.g.y m c z z z z t $ ",
"8 I.4 O.T.T.}.+.e.K 1.g.h.v.h.h.h.k.<.<.<.h.h.w m m z z z z $ K ",
"l a D D.C O.C.t.E { J k.h.5.<.>.G l.M.M.m.v.h.H * l z z l % $ e.",
"z z T O.6 ! C.` ].E.h k *.2.j.k.*.M.M.n.n.h.v.:.9.* q > p 7.n q ",
"z z -.R Y ^ X. .[.+.t.q.c 4.3.:.<.M.M.z.v.h.h.>.u.> u 8.r.r.6.q ",
"z z K ' D.^ L._ E.` r.y.n 6.t.a.j.m.M.5.v.h.h.3.8.u q.r.p.u.p z ",
"m m V P Z R D.I _ B.P q.n 7.u.B 2 J :.2 g.1.3.v.R u w.r.y.w.0 M ",
"z m M r.u.u.^ P i.R R w.v l N 9.< + 5 5 1 + + d e a r.w.7.V q M ",
"m z m q.r.r.r.r.r.u.r.r.v q m M R < 5 5 5 5 5 > = ;.M m m l = m ",
"m z m m ;.w.r.9.9.r.r.r.v . t m m u + + 5 , g * a w.N m m z # m ",
"z m z z m N K m m =.r.r.u # X l l ; 5 a 1 3 , $ m M M m z l   t ",
"z z z m m m m m z m M p q z l # - 5 7 a & ) 5 , s m m m s O = # ",
"* r l z m m z z s % = d o.I m t ; 3 * # 1 O , , 2 s s % $ . n q ",
"z 0 = # o $ * = q l m Z #.Y.%.S +.C l = . g f g p > 0 l M u 6.7.",
"m w.r.b * z z z z z z m z A F o.V.j m * y x a v K M M N e.7.n r.",
"w.d.r.* z z z z z m z z z M M =.j z z # p x 0.y.u.i.s.d.u.e.= r."
};
